<?xml version="1.0" encoding="UTF-8" standalone="no"?>
<!DOCTYPE svg PUBLIC "-//W3C//DTD SVG 1.1//EN" "http://www.w3.org/Graphics/SVG/1.1/DTD/svg11.dtd">
<svg width="210mm" height="105mm" version="1.1" viewBox="0 0 595.276 297.638" xmlns="http://www.w3.org/2000/svg">
<g font-family="Helvetica,Arial,&quot;Liberation Sans&quot;" transform="translate(0 297.638)">
<title>Swiss QR Bill</title>
<rect x="0.25" y="-297.388" width="594.776" height="297.138" fill="none" stroke="#666666" stroke-width="0.5"/>
<g transform="translate(189.921 -0)">
<text x="0" y="-274.665" font-size="11" font-weight="bold">Zahlteil</text>
</g>
<g transform="translate(189.921 -119.055) scale(2.138)">
<path d="M0,-61h7v1h-7zm8,0h1v3h-1zm2,0h1v1h-1zm2,0h1v1h-1zm4,0h1v2h-1zm2,0h2v1h-2z
m4,0h1v3h-1zm1,0h1v1h-1zm2,0h2v4h-2zm4,0h4v1h-4zm5,0h6v1h-6zm8,0h1v3h-1z
m4,0h1v2h-1zm5,0h2v3h-2zm3,0h7v1h-7zm-54,1h1v6h-1zm6,0h1v6h-1zm8,0h1v3h-1z
m3,0h1v2h-1zm11,0h1v1h-1zm4,0h2v1h-2zm4,0h1v1h-1zm3,0h1v4h-1zm4,0h2v1h-2z
m5,0h2v2h-2zm6,0h1v6h-1zm6,0h1v6h-1zm-58,1h3v3h-3zm9,0h1v3h-1zm2,0h1v2h-1z
m2,0h1v3h-1zm4,0h3v1h-3zm5,0h1v2h-1zm5,0h3v1h-3zm4,0h1v4h-1zm2,0h1v2h-1z
m2,0h1v1h-1zm3,0h2v1h-2zm5,0h1v1h-1zm5,0h1v6h-1zm6,0h3v3h-3zm-47,1h2v2h-2z
m7,0h1v1h-1zm2,0h1v4h-1zm2,0h2v1h-2zm8,0h1v9h-1zm4,0h1v6h-1zm2,0h1v1h-1z
m2,0h1v4h-1zm4,0h1v1h-1zm3,0h2v1h-2zm3,0h3v1h-3zm6,0h1v1h-1zm-44,1h1v1h-1z
m12,0h1v1h-1zm2,0h1v1h-1zm7,0h3v1h-3zm8,0h2v1h-2zm5,0h1v1h-1zm3,0h1v1h-1z
m2,0h1v2h-1zm2,0h1v1h-1zm2,0h1v1h-1zm-39,1h1v2h-1zm2,0h1v3h-1zm2,0h1v6h-1z
m1,0h1v1h-1zm4,0h1v1h-1zm2,0h4v1h-4zm15,0h1v2h-1zm2,0h1v4h-1zm4,0h1v2h-1z
m-43,1h5v1h-5zm7,0h1v1h-1zm2,0h1v2h-1zm10,0h1v1h-1zm2,0h1v4h-1zm2,0h1v1h-1z
m2,0h1v2h-1zm4,0h1v1h-1zm4,0h1v1h-1zm8,0h1v2h-1zm4,0h1v1h-1zm2,0h1v3h-1z
m4,0h1v2h-1zm3,0h5v1h-5zm-44,1h1v1h-1zm2,0h1v3h-1zm6,0h1v2h-1zm2,0h1v1h-1z
m2,0h1v2h-1zm2,0h1v1h-1zm2,0h1v5h-1zm8,0h1v1h-1zm2,0h1v1h-1zm6,0h1v1h-1z
m4,0h1v2h-1zm2,0h1v1h-1zm2,0h1v5h-1zm-51,1h1v1h-1zm3,0h6v1h-6zm12,0h1v3h-1z
m3,0h1v1h-1zm2,0h1v1h-1zm9,0h2v4h-2zm2,0h1v2h-1zm5,0h1v5h-1zm5,0h1v1h-1z
m4,0h2v1h-2zm8,0h1v1h-1zm3,0h1v1h-1zm2,0h3v1h-3zm-57,1h3v1h-3zm4,0h1v2h-1z
m5,0h2v3h-2zm2,0h1v1h-1zm5,0h1v3h-1zm4,0h1v1h-1zm4,0h1v1h-1zm9,0h2v1h-2z
m4,0h1v1h-1zm4,0h1v1h-1zm4,0h1v4h-1zm4,0h1v2h-1zm2,0h1v2h-1zm2,0h1v1h-1z
m4,0h1v1h-1zm2,0h1v3h-1zm-57,1h2v1h-2zm3,0h1v1h-1zm2,0h1v2h-1zm6,0h1v1h-1z
m6,0h1v1h-1zm3,0h2v1h-2zm9,0h2v1h-2zm3,0h1v1h-1zm2,0h1v1h-1zm2,0h1v6h-1z
m5,0h1v3h-1zm3,0h1v1h-1zm6,0h1v3h-1zm3,-0h1v4h-1zm3,0h1v3h-1zm-58,1h2v2h-2z
m2,0h1v1h-1zm4,0h1v1h-1zm2,0h1v1h-1zm3,0h2v1h-2zm6,0h2v1h-2zm6,-0h1v3h-1z
m1,0h1v1h-1zm9,0h1v1h-1zm8,-0h2v3h-2zm3,0h1v1h-1zm10,-0h1v4h-1zm3,0h1v1h-1z
m-52,1h1v1h-1zm6,0h1v1h-1zm6,0h1v1h-1zm2,0h4v1h-4zm6,0h1v1h-1zm6,0h1v1h-1z
m6,0h1v4h-1zm2,0h1v1h-1zm7,-0h2v3h-2zm-47,1h1v1h-1zm2,0h1v2h-1zm3,0h1v1h-1z
m3,0h3v2h-3zm9,0h1v1h-1zm2,0h1v5h-1zm4,-0h1v1h-1zm4,0h1v1h-1zm3,0h2v1h-2z
m11,0h1v2h-1zm4,0h1v3h-1zm4,-0h1v1h-1zm5,0h1v5h-1zm-51,1h2v1h-2zm3,0h2v1h-2z
m6,0h2v1h-2zm10,0h1v3h-1zm3,0h2v2h-2zm4,0h1v4h-1zm14,-0h1v1h-1zm7,0h2v1h-2z
m9,0h2v1h-2zm-59,1h2v1h-2zm5,0h1v2h-1zm2,0h2v3h-2zm3,0h1v3h-1zm1,0h1v1h-1z
m4,0h1v1h-1zm2,0h1v2h-1zm3,0h1v5h-1zm4,0h1v1h-1zm6,0h1v1h-1zm2,0h1v5h-1z
m2,0h2v2h-2zm3,0h1v5h-1zm5,0h1v1h-1zm4,0h2v1h-2zm6,0h1v1h-1zm5,0h2v2h-2z
m-54,1h2v1h-2zm3,0h1v1h-1zm6,0h2v1h-2zm6,0h1v1h-1zm8,0h1v4h-1zm2,0h1v2h-1z
m3,-0h1v7h-1zm2,0h1v1h-1zm3,0h1v1h-1zm7,0h2v1h-2zm4,0h2v1h-2zm3,0h2v1h-2z
m5,0h2v1h-2zm4,0h2v1h-2zm-59,1h1v2h-1zm9,0h1v1h-1zm4,0h4v1h-4zm11,0h1v13h-1z
m1,0h1v2h-1zm5,0h1v1h-1zm4,0h1v2h-1zm5,0h1v2h-1zm3,0h2v1h-2zm3,0h2v1h-2z
m6,0h1v1h-1zm5,0h1v1h-1zm2,0h1v1h-1zm2,0h1v2h-1zm-59,1h1v1h-1zm5,0h1v1h-1z
m2,0h1v1h-1zm3,0h1v2h-1zm2,-0h1v3h-1zm4,0h2v2h-2zm5,0h1v1h-1zm11,0h1v1h-1z
m2,0h2v1h-2zm5,0h2v1h-2zm4,0h1v2h-1zm2,-0h1v4h-1zm2,0h1v1h-1zm5,-0h1v4h-1z
m-51,1h2v1h-2zm3,-0h1v2h-1zm4,0h1v2h-1zm5,0h1v3h-1zm2,0h1v2h-1zm3,0h1v2h-1z
m2,0h1v7h-1zm2,0h1v3h-1zm4,0h1v1h-1zm3,0h1v1h-1zm5,0h1v1h-1zm3,0h1v1h-1z
m4,0h1v1h-1zm7,-0h2v2h-2zm5,0h2v1h-2zm3,0h1v1h-1zm2,0h1v1h-1zm-59,1h2v2h-2z
m3,0h1v2h-1zm3,0h3v1h-3zm6,0h1v3h-1zm3,0h1v1h-1zm7,0h1v3h-1zm3,0h1v4h-1z
m3,0h2v2h-2zm6,0h1v2h-1zm2,0h1v1h-1zm4,0h2v1h-2zm5,0h1v1h-1zm2,0h2v5h-2z
m11,0h1v2h-1zm2,0h1v1h-1zm-53,1h1v3h-1zm3,0h2v2h-2zm8,0h1v2h-1zm8,0h2v1h-2z
m4,0h1v4h-1zm3,0h1v2h-1zm5,0h1v1h-1zm3,0h2v2h-2zm8,0h1v1h-1zm3,0h1v2h-1z
m2,0h1v1h-1zm3,0h1v1h-1zm-53,1h1v1h-1zm2,0h1v1h-1zm2,0h2v1h-2zm8,0h1v1h-1z
m3,0h2v1h-2zm7,0h1v1h-1zm3,0h1v3h-1zm3,0h1v1h-1zm3,0h3v1h-3zm4,0h1v1h-1z
m6,0h1v1h-1zm5,0h2v1h-2zm6,0h1v1h-1zm4,0h1v3h-1zm-60,1h1v1h-1zm3,0h1v1h-1z
m2,0h1v2h-1zm4,0h1v1h-1zm2,0h1v2h-1zm4,0h1v2h-1zm8,0h1v1h-1zm5,0h1v2h-1z
m7,0h1v1h-1zm2,0h2v1h-2zm5,0h1v3h-1zm4,0h1v2h-1zm7,0h2v1h-2zm4,0h2v1h-2z
m-51,1h1v1h-1zm7,0h2v1h-2zm3,0h2v2h-2zm6,0h1v1h-1zm4,0h1v1h-1zm5,0h1v1h-1z
m2,0h2v1h-2zm3,0h2v1h-2zm3,0h3v1h-3zm4,0h3v1h-3zm6,0h2v2h-2zm2,0h1v1h-1z
m2,0h1v1h-1zm2,0h1v5h-1zm1,0h2v1h-2zm-55,1h1v3h-1zm2,0h1v4h-1zm5,0h1v1h-1z
m2,0h1v4h-1zm2,0h1v1h-1zm2,0h1v3h-1zm4,0h2v1h-2zm20,0h1v2h-1zm2,0h2v1h-2z
m8,0h1v6h-1zm6,0h1v1h-1zm4,0h2v1h-2zm-56,1h1v1h-1zm3,0h2v1h-2zm6,0h1v5h-1z
m4,0h1v3h-1zm1,0h1v1h-1zm2,0h1v1h-1zm2,0h1v2h-1zm3,0h1v1h-1zm18,0h1v1h-1z
m2,0h1v1h-1zm2,0h1v1h-1zm5,0h2v1h-2zm3,0h1v1h-1zm3,0h2v1h-2zm4,0h1v2h-1z
m-60,1h1v2h-1zm4,0h1v6h-1zm3,0h2v2h-2zm10,0h1v5h-1zm2,0h1v1h-1zm2,0h2v1h-2z
m18,0h1v1h-1zm3,0h1v3h-1zm4,0h1v1h-1zm6,0h1v6h-1zm2,0h1v2h-1zm4,0h1v1h-1z
m-53,1h2v1h-2zm7,0h1v1h-1zm24,0h3v1h-3zm5,0h1v2h-1zm2,0h3v1h-3zm4,0h1v1h-1z
m4,0h1v2h-1zm2,0h1v1h-1zm3,0h1v7h-1zm1,0h1v1h-1zm2,0h1v2h-1zm-51,1h1v7h-1z
m1,0h1v2h-1zm7,0h1v1h-1zm4,0h3v1h-3zm20,0h1v6h-1zm3,0h1v2h-1zm3,0h1v1h-1z
m3,0h1v2h-1zm11,0h1v2h-1zm-60,1h1v1h-1zm3,0h1v1h-1zm3,0h1v1h-1zm4,0h1v4h-1z
m2,0h1v1h-1zm2,0h2v1h-2zm5,0h1v1h-1zm2,0h3v1h-3zm29,0h1v4h-1zm4,0h1v1h-1z
m3,0h2v1h-2zm-55,1h1v1h-1zm14,0h1v1h-1zm2,0h1v1h-1zm4,0h1v1h-1zm14,0h4v1h-4z
m6,0h1v1h-1zm3,0h1v1h-1zm2,0h1v1h-1zm12,0h1v1h-1zm-58,1h1v3h-1zm2,0h1v1h-1z
m2,0h3v1h-3zm7,0h1v7h-1zm1,0h3v1h-3zm8,0h1v1h-1zm3,0h1v7h-1zm12,0h1v3h-1z
m2,0h2v2h-2zm5,0h1v1h-1zm3,0h1v5h-1zm2,0h2v2h-2zm5,0h3v1h-3zm7,0h1v1h-1z
m-60,1h1v2h-1zm5,0h1v1h-1zm2,0h1v2h-1zm2,0h1v1h-1zm2,0h1v1h-1zm4,0h3v1h-3z
m4,0h2v1h-2zm18,0h1v4h-1zm4,0h1v3h-1zm1,0h1v1h-1zm2,-0h1v5h-1zm1,0h1v1h-1z
m9,0h2v2h-2zm-52,1h2v3h-2zm2,0h1v1h-1zm2,0h1v1h-1zm10,0h1v1h-1zm6,0h1v3h-1z
m17,0h1v2h-1zm9,0h1v1h-1zm3,0h3v3h-3zm6,0h1v3h-1zm3,0h1v3h-1zm-47,1h1v2h-1z
m2,0h1v1h-1zm2,-0h1v3h-1zm3,0h1v2h-1zm18,0h1v4h-1zm5,0h1v1h-1zm2,0h1v1h-1z
m4,0h1v1h-1zm6,0h1v1h-1zm3,0h1v1h-1zm-58,1h1v1h-1zm4,-0h2v2h-2zm2,0h1v1h-1z
m3,0h2v1h-2zm5,0h1v1h-1zm7,0h1v1h-1zm2,0h1v1h-1zm2,0h2v1h-2zm3,0h4v1h-4z
m5,-0h1v5h-1zm2,0h2v1h-2zm5,0h1v4h-1zm2,-0h1v2h-1zm5,0h2v2h-2zm12,0h1v3h-1z
m-56,1h1v1h-1zm5,0h2v1h-2zm10,0h2v1h-2zm10,0h1v3h-1zm2,-0h3v1h-3zm6,0h1v2h-1z
m3,-0h1v1h-1zm2,0h1v1h-1zm4,0h1v1h-1zm4,0h2v2h-2zm2,-0h1v1h-1zm4,0h2v2h-2z
m-55,1h1v1h-1zm5,0h3v1h-3zm5,0h2v1h-2zm4,0h2v1h-2zm4,0h1v1h-1zm8,0h1v1h-1z
m5,0h2v1h-2zm3,-0h1v4h-1zm3,0h1v1h-1zm6,0h1v1h-1zm3,0h1v1h-1zm8,-0h1v3h-1z
m3,0h2v2h-2zm-53,1h1v2h-1zm3,0h2v1h-2zm4,0h1v1h-1zm2,0h2v1h-2zm7,0h1v1h-1z
m7,0h1v1h-1zm3,-0h1v2h-1zm5,0h1v2h-1zm4,0h1v1h-1zm2,0h1v1h-1zm3,-0h1v2h-1z
m6,0h1v1h-1zm10,-0h1v2h-1zm-59,1h2v1h-2zm5,0h1v1h-1zm2,0h1v3h-1zm8,0h4v1h-4z
m7,0h3v1h-3zm8,0h1v1h-1zm5,0h3v1h-3zm9,0h2v4h-2zm3,0h2v1h-2zm3,0h1v1h-1z
m2,0h1v1h-1zm4,0h1v2h-1zm2,0h1v2h-1zm-57,1h2v1h-2zm3,0h1v2h-1zm2,0h1v1h-1z
m2,0h1v9h-1zm1,0h1v4h-1zm3,0h1v2h-1zm3,0h1v3h-1zm4,0h1v1h-1zm7,0h1v3h-1z
m2,0h1v2h-1zm13,0h1v3h-1zm5,0h2v1h-2zm3,0h1v1h-1zm2,0h1v2h-1zm3,0h1v1h-1z
m3,0h1v1h-1zm-55,1h2v1h-2zm3,0h1v1h-1zm6,0h1v1h-1zm3,0h1v1h-1zm2,0h1v1h-1z
m2,0h1v2h-1zm2,0h1v8h-1zm1,0h2v1h-2zm3,0h1v1h-1zm3,0h1v3h-1zm2,0h1v1h-1z
m5,0h2v1h-2zm4,0h1v1h-1zm4,0h1v1h-1zm8,0h1v1h-1zm3,0h1v1h-1zm2,0h1v2h-1z
m4,0h1v1h-1zm-53,1h1v4h-1zm4,0h1v1h-1zm7,0h1v6h-1zm2,-0h1v2h-1zm3,0h1v1h-1z
m3,0h1v1h-1zm5,0h3v1h-3zm6,0h2v2h-2zm3,0h1v2h-1zm4,0h1v1h-1zm3,0h1v1h-1z
m2,0h2v1h-2zm8,0h1v2h-1zm-57,1h2v4h-2zm3,0h4v1h-4zm5,0h1v1h-1zm5,0h2v1h-2z
m4,0h1v3h-1zm5,0h1v1h-1zm2,0h1v4h-1zm1,0h1v1h-1zm5,0h2v1h-2zm5,0h2v1h-2z
m13,0h1v1h-1zm3,0h2v1h-2zm3,0h2v1h-2zm6,0h1v1h-1zm-58,1h2v1h-2zm3,0h1v2h-1z
m6,0h2v1h-2zm5,0h1v2h-1zm13,0h1v4h-1zm5,0h1v1h-1zm4,0h2v1h-2zm3,0h1v3h-1z
m1,0h1v1h-1zm4,0h2v3h-2zm4,0h1v1h-1zm2,0h2v1h-2zm3,0h2v1h-2zm4,0h1v4h-1z
m-56,1h1v1h-1zm3,0h1v1h-1zm2,0h1v1h-1zm2,0h1v2h-1zm2,0h3v1h-3zm8,0h1v3h-1z
m2,0h2v1h-2zm11,0h1v1h-1zm2,0h2v5h-2zm5,0h1v1h-1zm5,0h1v1h-1zm3,0h2v1h-2z
m3,0h1v4h-1zm1,0h1v1h-1zm2,0h1v1h-1zm3,0h2v1h-2zm3,0h1v1h-1zm-58,1h1v1h-1z
m2,0h1v1h-1zm7,0h2v1h-2zm3,0h1v3h-1zm1,0h1v1h-1zm4,0h1v2h-1zm3,0h1v1h-1z
m3,0h1v1h-1zm2,0h1v1h-1zm4,0h1v1h-1zm3,0h1v1h-1zm4,0h1v5h-1zm1,0h1v1h-1z
m5,0h1v4h-1zm9,0h1v2h-1zm3,0h1v4h-1zm2,0h1v2h-1zm-57,1h1v1h-1zm2,0h1v3h-1z
m3,0h1v1h-1zm2,0h1v1h-1zm18,0h1v1h-1zm4,0h1v2h-1zm10,0h1v3h-1zm2,0h1v2h-1z
m3,0h1v1h-1zm3,0h1v1h-1zm4,0h1v3h-1zm2,0h2v3h-2zm3,0h1v3h-1zm-57,1h1v1h-1z
m2,0h1v4h-1zm2,0h1v3h-1zm6,-0h2v2h-2zm2,0h1v1h-1zm3,0h3v1h-3zm7,0h1v1h-1z
m2,-0h2v2h-2zm3,0h1v4h-1zm4,0h1v4h-1zm1,0h2v1h-2zm5,0h1v1h-1zm2,0h1v6h-1z
m4,0h1v1h-1zm7,0h1v1h-1zm10,-0h1v2h-1zm-55,1h4v1h-4zm11,0h1v1h-1zm3,0h1v7h-1z
m4,0h1v3h-1zm3,-0h1v1h-1zm7,0h1v1h-1zm8,0h1v2h-1zm6,0h1v6h-1zm2,-0h1v1h-1z
m9,0h2v1h-2zm-58,1h2v2h-2zm8,0h1v1h-1zm2,0h1v1h-1zm2,0h1v2h-1zm3,0h1v1h-1z
m5,0h1v2h-1zm2,0h1v2h-1zm2,0h1v1h-1zm4,0h1v10h-1zm1,0h2v2h-2zm3,0h1v6h-1z
m4,0h1v3h-1zm6,-0h2v1h-2zm3,0h1v4h-1zm1,-0h1v1h-1zm5,0h1v2h-1zm2,0h1v2h-1z
m5,0h1v1h-1zm-55,1h1v1h-1zm3,0h2v1h-2zm3,0h1v5h-1zm2,0h1v2h-1zm2,0h1v1h-1z
m4,0h1v1h-1zm9,0h1v3h-1zm7,-0h2v1h-2zm4,0h1v4h-1zm7,0h1v4h-1zm4,0h1v2h-1z
m2,0h1v1h-1zm2,0h1v6h-1zm2,-0h4v1h-4zm5,0h1v2h-1zm-51,1h1v5h-1zm6,0h1v8h-1z
m2,0h1v2h-1zm8,0h2v1h-2zm10,0h1v1h-1zm6,0h1v1h-1zm2,0h2v1h-2zm4,0h1v1h-1z
m3,0h1v2h-1zm7,0h2v3h-2zm-56,1h7v1h-7zm10,0h1v1h-1zm2,0h1v1h-1zm3,0h1v7h-1z
m5,0h2v1h-2zm5,0h1v1h-1zm5,0h1v1h-1zm5,0h1v1h-1zm8,0h1v2h-1zm8,0h1v1h-1z
m3,0h1v1h-1zm6,0h1v2h-1zm-60,1h1v6h-1zm6,0h1v6h-1zm5,0h1v2h-1zm7,0h1v2h-1z
m6,0h1v6h-1zm3,0h1v2h-1zm11,-0h1v1h-1zm2,0h2v3h-2zm-38,1h3v3h-3zm8,0h1v2h-1z
m6,-0h1v1h-1zm4,0h1v1h-1zm5,0h1v2h-1zm4,-0h1v5h-1zm1,0h2v1h-2zm3,0h1v3h-1z
m3,-0h1v1h-1zm6,0h1v2h-1zm3,-0h1v1h-1zm3,0h3v1h-3zm5,0h1v5h-1zm1,0h3v1h-3z
m-42,1h2v3h-2zm5,0h1v1h-1zm4,0h3v2h-3zm9,0h1v1h-1zm7,0h3v1h-3zm7,0h1v2h-1z
m2,0h1v1h-1zm2,0h1v2h-1zm2,0h1v1h-1zm4,0h1v1h-1zm4,0h1v4h-1zm2,0h1v4h-1z
m-51,1h1v2h-1zm2,0h1v1h-1zm5,0h1v1h-1zm3,0h2v2h-2zm7,0h1v1h-1zm11,0h1v1h-1z
m2,0h1v1h-1zm2,0h1v3h-1zm4,0h1v1h-1zm2,0h1v2h-1zm2,0h1v3h-1zm2,0h1v1h-1z
m4,0h2v2h-2zm4,0h1v2h-1zm-41,1h1v2h-1zm3,0h1v2h-1zm2,0h1v1h-1zm2,0h1v2h-1z
m2,0h1v1h-1zm4,0h2v2h-2zm3,0h1v2h-1zm6,0h1v2h-1zm2,0h1v1h-1zm4,0h1v1h-1z
m4,0h1v2h-1zm4,0h1v1h-1zm-53,1h5v1h-5zm7,0h1v1h-1zm3,0h1v1h-1zm5,0h1v1h-1z
m6,0h1v1h-1zm4,0h1v1h-1zm7,0h1v1h-1zm2,0h3v1h-3zm4,0h1v1h-1zm5,0h1v1h-1z
m4,0h1v1h-1zm3,0h1v1h-1zm5,0h2v1h-2z" fill="#000000"/>
</g>
<g transform="translate(189.921 -119.055)">
<path d="M56.693,-73.701h17.008v17.008h-17.008z" fill="#000000"/>
<path d="M63.543,-70.709h3.307v11.024h-3.307zm-3.858,3.858h11.024v3.307h-11.024z" fill="#ffffff"/>
</g>
<g transform="translate(189.921 -0)">
<text x="0" y="-98.482" font-size="8" font-weight="bold">Währung</text>
<text x="0" y="-85.482" font-size="10">EUR</text>
<text x="42.52" y="-98.482" font-size="8" font-weight="bold">Betrag</text>
<text x="42.52" y="-85.482" font-size="10">287.30</text>
</g>
<g transform="translate(334.488 -0)">
<text x="0" y="-277.065" font-size="8" font-weight="bold">Konto / Zahlbar an</text>
<text x="0" y="-266.065" font-size="10">CH45 0023 0230 9999 9999 A</text>
<text x="0" y="-255.065" font-size="10">Schreinerei Habegger &amp; Söhne</text>
<text x="0" y="-244.065" font-size="10">Uetlibergstrasse 138</text>
<text x="0" y="-233.065" font-size="10">8045 Zürich</text>
<text x="0" y="-211.065" font-size="8" font-weight="bold">Referenz</text>
<text x="0" y="-200.065" font-size="10">RF19 2320 QF02 T323 4UI2 34</text>
<text x="0" y="-178.065" font-size="8" font-weight="bold">Zusätzliche Informationen</text>
<text x="0" y="-167.065" font-size="10">Rechnungsnr. 10978 / Auftragsrnr. 3987</text>
<text x="0" y="-145.065" font-size="8" font-weight="bold">Zahlbar durch</text>
<text x="0" y="-134.065" font-size="10">Simon Glarner</text>
<text x="0" y="-123.065" font-size="10">Bächliwis 55</text>
<text x="0" y="-112.065" font-size="10">8184 Bachenbülach</text>
</g>
<g transform="translate(14.173 -0)">
<text x="0" y="-274.665" font-size="11" font-weight="bold">Empfangsschein</text>
<text x="0" y="-258.822" font-size="6" font-weight="bold">Konto / Zahlbar an</text>
<text x="0" y="-249.822" font-size="8">CH45 0023 0230 9999 9999 A</text>
<text x="0" y="-240.822" font-size="8">Schreinerei Habegger &amp; Söhne</text>
<text x="0" y="-231.822" font-size="8">Uetlibergstrasse 138</text>
<text x="0" y="-222.822" font-size="8">8045 Zürich</text>
<text x="0" y="-204.822" font-size="6" font-weight="bold">Referenz</text>
<text x="0" y="-195.822" font-size="8">RF19 2320 QF02 T323 4UI2 34</text>
<text x="0" y="-177.822" font-size="6" font-weight="bold">Zahlbar durch</text>
<text x="0" y="-168.822" font-size="8">Simon Glarner</text>
<text x="0" y="-159.822" font-size="8">Bächliwis 55</text>
<text x="0" y="-150.822" font-size="8">8184 Bachenbülach</text>
<text x="0" y="-100.082" font-size="6" font-weight="bold">Währung</text>
<text x="0" y="-89.082" font-size="8">EUR</text>
<text x="34.016" y="-100.082" font-size="6" font-weight="bold">Betrag</text>
<text x="34.016" y="-89.082" font-size="8">287.30</text>
<text x="104.724" y="-60.397" font-size="6" font-weight="bold">Annahmestelle</text>
</g>
<path d="M175.748,-0l0,-274.961m0,-8.504l0,-14.173" stroke="#000000" stroke-width="0.6" stroke-dasharray="2.4" fill="none"/>
<g transform="translate(172.687 -274.535) scale(0.006)">
<path d="M131.754,-359.388c-33.041,54.539,-52.384,110.154,-52.384,192.144c0,62.702,15.27,120.654,41.122,167.596l567.598,-926.232c10.25,-16.724,34.279,-23.091,63.969,-5.805c33.06,19.242,71.495,30.268,112.507,30.268
c123.676,0,223.937,-100.261,223.937,-223.937c0,-123.676,-100.261,-223.937,-223.937,-223.937c-76.348,0,-143.773,38.208,-184.195,96.548l-548.617,893.353zm728.561,-904.861c75.929,0,137.48,61.551,137.48,137.48
c0,75.929,-61.551,137.48,-137.48,137.48c-75.929,0,-137.48,-61.551,-137.48,-137.48c0,-75.929,61.551,-137.48,137.48,-137.48z" fill="#000000"/>
</g>
<g transform="translate(178.809 -274.535) scale(-0.006 0.006)">
<path d="M131.754,-359.388c-33.041,54.539,-52.384,110.154,-52.384,192.144c0,62.702,15.27,120.654,41.122,167.596l567.598,-926.232c10.25,-16.724,34.279,-23.091,63.969,-5.805c33.06,19.242,71.495,30.268,112.507,30.268
c123.676,0,223.937,-100.261,223.937,-223.937c0,-123.676,-100.261,-223.937,-223.937,-223.937c-76.348,0,-143.773,38.208,-184.195,96.548l-548.617,893.353zm728.561,-904.861c75.929,0,137.48,61.551,137.48,137.48
c0,75.929,-61.551,137.48,-137.48,137.48c-75.929,0,-137.48,-61.551,-137.48,-137.48c0,-75.929,61.551,-137.48,137.48,-137.48z" fill="#000000"/>
</g>
</g>
</svg>
