<svg 
  clip-rule="evenodd" 
  fill-rule="evenodd" 
  stroke-linejoin="round" 
  stroke-miterlimit="2" 
  viewBox="0 0 2481 374"
  preserveAspectRatio="xMinYMin meet"
  xmlns="http://www.w3.org/2000/svg" 
  xmlns:xlink="http://www.w3.org/1999/xlink">

  <linearGradient 
    id="a" 
    gradientUnits="userSpaceOnUse" 
    x1="276.774" x2="720.433" 
    y1="1557.99" y2="1557.99">

    <stop 
      offset="0" 
      stop-color="#fff" 
      stop-opacity=".25"/>    
    <stop 
      offset="1" 
      stop-color="#fff"/>  
  </linearGradient>
    
  <linearGradient 
    id="b" 
    gradientUnits="userSpaceOnUse" 
    x1="276.774" x2="720.433" 
    y1="1557.99" y2="1557.99">
    
    <stop 
      offset="0" 
      stop-color="#fff"/>    
    <stop 
      offset="1" 
      stop-color="#fff" 
      stop-opacity=".25"/>     
  </linearGradient>
    
  <g transform="scale(1 .106394)">
    <!-- pennant -->
    <path 
      d="m0 0h2503.94v708.661h-2503.94z" 
      fill="#ff5a5f" 
      transform="matrix(.95802 -2.69471990106 .286701 9.0044874612 -886.615 -967.20087024)"/>
    
    <!-- z -->
    <g fill-rule="nonzero">
      <!-- top -->    
      <path 
        d="m453.351 243.556c-1.16-.021-2.274-.032-3.357-.032-89.902 0-166.46 57.589-194.767 137.865l-228.18-80.355c72.211-206.434 287.055-334.3 508.071-291.439 139.747 27.1 251.69 116.585 312.546 233.961z" 
        fill="url(#b)" 
        transform="matrix(.18534763097 0 0 1.74209350433 81.57561584632 656.01432576784)"/>
      <!-- mid top -->
      <path 
        d="m303.884 1557.99 416.549 218.76c-39.35 74.96-117.957 126.14-208.423 126.14-129.83 0-235.236-105.41-235.236-235.24 0-39.59 9.802-76.91 27.11-109.66z" 
        fill="url(#a)" 
        transform="matrix(.34654327381 .6316546019 .06720401848 -3.25719428925 -124.557074022 6547.40369767365)"/>
      <!-- mid bottom -->    
      <path 
        d="m303.884 1557.99 416.549 218.76c-39.35 74.96-117.957 126.14-208.423 126.14-129.83 0-235.236-105.41-235.236-235.24 0-39.59 9.802-76.91 27.11-109.66z" 
        fill="url(#a)" 
        transform="matrix(-.34654327381 -.6316546019 -.06720401848 3.25719428925 454.521362718 -3667.4853558367)"/>       
      <!-- bottom -->
      <path 
        d="m449.981 656.476h.025c89.902 0 166.46-57.589 194.767-137.865l228.18 80.355c-72.211 206.434-287.055 334.3-508.071 291.439-139.73-27.097-251.663-116.563-312.529-233.928h397.628z" 
        fill="url(#a)" 
        transform="matrix(.18534763097 0 0 1.74209350433 81.57561584632 656.01432576784)"/>
    </g>
  </g>
</svg>